<svg width="77" height="104" viewBox="0 0 77 104" fill="none" xmlns="http://www.w3.org/2000/svg">
<path d="M25.875 57.9336H38.043C49.1855 57.9336 55.9531 63.4023 55.9531 72.4258C55.9531 80.7656 48.707 86.5762 38.3848 86.5762C27.5156 86.5762 20.6797 81.1074 20.0645 72.7676H0.308594C1.26562 90.9512 15.8262 103.188 38.1113 103.188C60.875 103.188 76.9395 91.4297 76.9395 73.7246C76.9395 60.0527 67.4375 51.166 52.7402 49.9355V49.5254C64.8398 47.3379 73.1113 38.5879 73.1113 26.4883C73.1113 10.6973 59.0977 0.169922 38.5898 0.169922C17.1934 0.169922 2.97461 12.0645 2.22266 30.3164H21.2266C21.7734 21.7031 28.1309 16.0293 37.7012 16.0293C47.9551 16.0293 53.6289 21.293 53.6289 29.291C53.6289 37.4258 47.2715 43.0312 37.8379 43.0312H25.875V57.9336Z" fill="#A2A2A2" fill-opacity="0.52"/>
</svg>
