<svg width="23" height="24" viewBox="0 0 23 24" fill="none" xmlns="http://www.w3.org/2000/svg">
<mask id="mask0_374_287" style="mask-type:alpha" maskUnits="userSpaceOnUse" x="0" y="0" width="23" height="24">
<rect x="0.472168" y="0.934082" width="22.3749" height="22.3749" fill="#D9D9D9"/>
</mask>
<g mask="url(#mask0_374_287)">
<path d="M17.7532 21.3415C16.9748 21.3415 16.3132 21.0708 15.7684 20.5293C15.2236 19.9879 14.9512 19.3304 14.9512 18.5569C14.9512 18.4487 14.9589 18.3363 14.9745 18.22C14.9901 18.1043 15.0134 18 15.0446 17.9072L8.45986 14.1017C8.19523 14.3337 7.89946 14.5153 7.57256 14.6465C7.24566 14.7783 6.9032 14.8442 6.54516 14.8442C5.76683 14.8442 5.10525 14.5735 4.56041 14.0321C4.01558 13.4906 3.74316 12.8332 3.74316 12.0597C3.74316 11.2862 4.01558 10.6287 4.56041 10.0873C5.10525 9.54584 5.76683 9.27511 6.54516 9.27511C6.9032 9.27511 7.24566 9.34071 7.57256 9.47189C7.89946 9.60369 8.19523 9.78562 8.45986 10.0177L15.0446 6.21211C15.0134 6.11929 14.9901 6.01503 14.9745 5.89931C14.9589 5.78298 14.9512 5.67067 14.9512 5.56238C14.9512 4.7889 15.2236 4.13143 15.7684 3.58999C16.3132 3.04855 16.9748 2.77783 17.7532 2.77783C18.5315 2.77783 19.1931 3.04855 19.7379 3.58999C20.2827 4.13143 20.5552 4.7889 20.5552 5.56238C20.5552 6.33587 20.2827 6.99333 19.7379 7.53477C19.1931 8.07621 18.5315 8.34693 17.7532 8.34693C17.3951 8.34693 17.0527 8.28103 16.7258 8.14923C16.3989 8.01805 16.1031 7.83643 15.8385 7.60438L9.25376 11.4099C9.28489 11.5028 9.30825 11.607 9.32381 11.7227C9.33938 11.8391 9.34716 11.9514 9.34716 12.0597C9.34716 12.168 9.33938 12.28 9.32381 12.3957C9.30825 12.512 9.28489 12.6166 9.25376 12.7094L15.8385 16.5149C16.1031 16.2829 16.3989 16.101 16.7258 15.9692C17.0527 15.838 17.3951 15.7724 17.7532 15.7724C18.5315 15.7724 19.1931 16.0431 19.7379 16.5846C20.2827 17.126 20.5552 17.7835 20.5552 18.5569C20.5552 19.3304 20.2827 19.9879 19.7379 20.5293C19.1931 21.0708 18.5315 21.3415 17.7532 21.3415ZM17.7532 6.49056C18.0178 6.49056 18.2395 6.40177 18.4182 6.22418C18.5975 6.04597 18.6872 5.82537 18.6872 5.56238C18.6872 5.2994 18.5975 5.0788 18.4182 4.90059C18.2395 4.72299 18.0178 4.6342 17.7532 4.6342C17.4885 4.6342 17.2669 4.72299 17.0882 4.90059C16.9088 5.0788 16.8192 5.2994 16.8192 5.56238C16.8192 5.82537 16.9088 6.04597 17.0882 6.22418C17.2669 6.40177 17.4885 6.49056 17.7532 6.49056ZM6.54516 12.9878C6.8098 12.9878 7.03178 12.8987 7.2111 12.7205C7.38981 12.5429 7.47916 12.3226 7.47916 12.0597C7.47916 11.7967 7.38981 11.5761 7.2111 11.3979C7.03178 11.2203 6.8098 11.1315 6.54516 11.1315C6.28053 11.1315 6.05855 11.2203 5.87922 11.3979C5.70052 11.5761 5.61116 11.7967 5.61116 12.0597C5.61116 12.3226 5.70052 12.5429 5.87922 12.7205C6.05855 12.8987 6.28053 12.9878 6.54516 12.9878ZM17.7532 19.4851C18.0178 19.4851 18.2395 19.396 18.4182 19.2178C18.5975 19.0402 18.6872 18.8199 18.6872 18.5569C18.6872 18.294 18.5975 18.0737 18.4182 17.8961C18.2395 17.7179 18.0178 17.6288 17.7532 17.6288C17.4885 17.6288 17.2669 17.7179 17.0882 17.8961C16.9088 18.0737 16.8192 18.294 16.8192 18.5569C16.8192 18.8199 16.9088 19.0402 17.0882 19.2178C17.2669 19.396 17.4885 19.4851 17.7532 19.4851Z" fill="#A0A0A0"/>
</g>
</svg>
