<svg width="21" height="21" viewBox="0 0 21 21" fill="none" xmlns="http://www.w3.org/2000/svg">
<path d="M15.2127 0.356842H5.78541C4.32739 0.358402 2.92953 0.938289 1.89856 1.96926C0.86758 3.00024 0.287692 4.3981 0.286133 5.85612V15.2834C0.287692 16.7415 0.86758 18.1393 1.89856 19.1703C2.92953 20.2013 4.32739 20.7812 5.78541 20.7827H15.2127C16.6708 20.7812 18.0686 20.2013 19.0996 19.1703C20.1306 18.1393 20.7104 16.7415 20.712 15.2834V5.85612C20.7104 4.3981 20.1306 3.00024 19.0996 1.96926C18.0686 0.938289 16.6708 0.358402 15.2127 0.356842ZM10.4991 15.2834C9.56679 15.2834 8.65546 15.007 7.8803 14.489C7.10514 13.9711 6.50098 13.2349 6.14421 12.3736C5.78745 11.5123 5.6941 10.5645 5.87598 9.65019C6.05786 8.73583 6.50679 7.89593 7.16601 7.23672C7.82522 6.5775 8.66512 6.12857 9.57948 5.94669C10.4938 5.76481 11.4416 5.85816 12.3029 6.21492C13.1642 6.57169 13.9004 7.17585 14.4183 7.95101C14.9363 8.72617 15.2127 9.6375 15.2127 10.5698C15.2114 11.8195 14.7144 13.0177 13.8307 13.9014C12.947 14.7851 11.7488 15.2821 10.4991 15.2834ZM16.3911 5.85612C16.1581 5.85612 15.9302 5.787 15.7365 5.65752C15.5427 5.52803 15.3916 5.34399 15.3024 5.12866C15.2132 4.91333 15.1899 4.67639 15.2354 4.4478C15.2808 4.21921 15.3931 4.00924 15.5579 3.84443C15.7227 3.67963 15.9327 3.5674 16.1613 3.52193C16.3898 3.47646 16.6268 3.49979 16.8421 3.58899C17.0574 3.67818 17.2415 3.82922 17.371 4.02301C17.5005 4.2168 17.5696 4.44463 17.5696 4.6777C17.5696 4.99023 17.4454 5.28997 17.2244 5.51097C17.0034 5.73196 16.7037 5.85612 16.3911 5.85612ZM13.6415 10.5698C13.6415 11.1913 13.4572 11.7989 13.1119 12.3156C12.7666 12.8324 12.2758 13.2352 11.7016 13.473C11.1274 13.7109 10.4956 13.7731 9.88601 13.6518C9.27643 13.5306 8.71651 13.2313 8.27703 12.7918C7.83755 12.3523 7.53826 11.7924 7.41701 11.1828C7.29576 10.5733 7.35799 9.94142 7.59583 9.36722C7.83367 8.79301 8.23645 8.30223 8.75322 7.95693C9.26999 7.61164 9.87755 7.42734 10.4991 7.42734C11.3325 7.42734 12.1318 7.75841 12.7211 8.34774C13.3104 8.93706 13.6415 9.73635 13.6415 10.5698Z" fill="#020202"/>
</svg>
