<svg width="36" height="36" viewBox="0 0 36 36" fill="none" xmlns="http://www.w3.org/2000/svg">
<path d="M18 0C14.4399 0 10.9598 1.05568 7.99974 3.03355C5.03966 5.01141 2.73255 7.82263 1.37018 11.1117C0.00779871 14.4008 -0.348661 18.02 0.345873 21.5116C1.04041 25.0033 2.75474 28.2106 5.27209 30.7279C7.78943 33.2453 10.9967 34.9596 14.4884 35.6541C17.98 36.3487 21.5992 35.9922 24.8883 34.6298C28.1774 33.2674 30.9886 30.9603 32.9665 28.0003C34.9443 25.0402 36 21.5601 36 18C35.9944 13.2278 34.0962 8.65271 30.7217 5.27827C27.3473 1.90383 22.7722 0.00560444 18 0ZM18 33.8823C14.8588 33.8823 11.7881 32.9509 9.17624 31.2057C6.56441 29.4605 4.52872 26.98 3.32663 24.0779C2.12453 21.1758 1.81001 17.9824 2.42283 14.9015C3.03565 11.8206 4.5483 8.99067 6.76949 6.76948C8.99067 4.54829 11.8206 3.03565 14.9015 2.42282C17.9824 1.81 21.1758 2.12452 24.0779 3.32662C26.98 4.52872 29.4605 6.5644 31.2057 9.17624C32.9509 11.7881 33.8824 14.8588 33.8824 18C33.8777 22.2108 32.2029 26.2479 29.2254 29.2254C26.2479 32.2029 22.2108 33.8777 18 33.8823ZM26.1177 18C26.1177 18.2808 26.0061 18.5501 25.8075 18.7487C25.609 18.9473 25.3396 19.0588 25.0588 19.0588H13.4982L17.3365 22.8988C17.4405 22.9958 17.5239 23.1126 17.5818 23.2425C17.6397 23.3724 17.6708 23.5126 17.6733 23.6548C17.6758 23.797 17.6497 23.9382 17.5964 24.07C17.5432 24.2019 17.4639 24.3216 17.3634 24.4222C17.2628 24.5227 17.143 24.602 17.0112 24.6552C16.8794 24.7085 16.7381 24.7346 16.596 24.7321C16.4538 24.7296 16.3136 24.6985 16.1837 24.6406C16.0538 24.5828 15.9369 24.4993 15.84 24.3953L10.1929 18.7482C9.99467 18.5497 9.88329 18.2806 9.88329 18C9.88329 17.7194 9.99467 17.4503 10.1929 17.2518L15.84 11.6047C16.0407 11.4177 16.3062 11.3159 16.5805 11.3207C16.8548 11.3255 17.1165 11.4367 17.3105 11.6307C17.5045 11.8246 17.6156 12.0864 17.6205 12.3607C17.6253 12.635 17.5235 12.9005 17.3365 13.1012L13.4982 16.9412H25.0588C25.3396 16.9412 25.609 17.0527 25.8075 17.2513C26.0061 17.4499 26.1177 17.7192 26.1177 18Z" fill="#333333"/>
</svg>
