<svg width="23" height="22" viewBox="0 0 23 22" fill="none" xmlns="http://www.w3.org/2000/svg">
<path fill-rule="evenodd" clip-rule="evenodd" d="M3.71379 0C2.88035 0 2.08104 0.331084 1.49171 0.920417C0.902373 1.50975 0.571289 2.30906 0.571289 3.1425V18.855C0.571289 19.6884 0.902373 20.4877 1.49171 21.0771C2.08104 21.6664 2.88035 21.9975 3.71379 21.9975H19.4263C20.2597 21.9975 21.059 21.6664 21.6484 21.0771C22.2377 20.4877 22.5688 19.6884 22.5688 18.855V3.1425C22.5688 2.30906 22.2377 1.50975 21.6484 0.920417C21.059 0.331084 20.2597 0 19.4263 0H3.71379ZM5.44531 6.75166C5.94329 6.75166 6.42087 6.55384 6.773 6.20171C7.12513 5.84959 7.32295 5.372 7.32295 4.87402C7.32295 4.37604 7.12513 3.89845 6.773 3.54632C6.42087 3.1942 5.94329 2.99637 5.44531 2.99637C4.94732 2.99637 4.46974 3.1942 4.11761 3.54632C3.76549 3.89845 3.56766 4.37604 3.56766 4.87402C3.56766 5.372 3.76549 5.84959 4.11761 6.20171C4.46974 6.55384 4.94732 6.75166 5.44531 6.75166ZM7.01656 18.5612V8.22392H3.87406V18.5612H7.01656ZM9.10318 8.22392H12.2457V9.60819C12.7092 8.88228 13.7274 7.90496 15.6207 7.90496C17.8802 7.90496 19.1073 9.40236 19.1073 12.251C19.1073 12.3877 19.1199 13.0115 19.1199 13.0115V18.5596H15.9774V13.0131C15.9774 12.251 15.8171 10.7536 14.1233 10.7536C12.4279 10.7536 12.285 12.636 12.2457 13.8679V18.5596H9.10318V8.22392Z" fill="#020202"/>
</svg>
