<svg width="26" height="21" viewBox="0 0 26 21" fill="none" xmlns="http://www.w3.org/2000/svg">
<path d="M3.00561 20.2626C2.31737 20.2626 1.7282 20.0176 1.23809 19.5275C0.747984 19.0374 0.50293 18.4482 0.50293 17.7599V2.74389C0.50293 2.05565 0.747984 1.46648 1.23809 0.976372C1.7282 0.486265 2.31737 0.241211 3.00561 0.241211H23.027C23.7153 0.241211 24.3044 0.486265 24.7945 0.976372C25.2846 1.46648 25.5297 2.05565 25.5297 2.74389V17.7599C25.5297 18.4482 25.2846 19.0374 24.7945 19.5275C24.3044 20.0176 23.7153 20.2626 23.027 20.2626H3.00561ZM13.0163 11.5033L3.00561 5.24656V17.7599H23.027V5.24656L13.0163 11.5033ZM13.0163 9.00058L23.027 2.74389H3.00561L13.0163 9.00058ZM3.00561 5.24656V2.74389V17.7599V5.24656Z" fill="#1C1B1F"/>
</svg>
