<svg width="16" height="9" viewBox="0 0 16 9" fill="none" xmlns="http://www.w3.org/2000/svg">
<path d="M9.025 4.50001C9.025 6.98501 7.005 9.00001 4.512 9.00001C3.92026 9.00079 3.33417 8.88502 2.78717 8.6593C2.24018 8.43358 1.743 8.10234 1.32402 7.68447C0.90504 7.26661 0.572469 6.77031 0.345294 6.22392C0.118118 5.67753 0.000787407 5.09174 0 4.50001C0 2.01401 2.02 5.44389e-06 4.512 5.44389e-06C5.10382 -0.000914465 5.69003 0.114759 6.23714 0.34042C6.78425 0.56608 7.28154 0.897308 7.70063 1.31518C8.11971 1.73306 8.45237 2.2294 8.67961 2.77586C8.90685 3.32232 9.02421 3.90818 9.025 4.50001ZM13.975 4.50001C13.975 6.84001 12.965 8.73601 11.719 8.73601C10.473 8.73601 9.463 6.83901 9.463 4.50001C9.463 2.16001 10.473 0.264005 11.719 0.264005C12.965 0.264005 13.975 2.16101 13.975 4.50001ZM16 4.50001C16 6.59601 15.645 8.29501 15.206 8.29501C14.768 8.29501 14.413 6.59501 14.413 4.50001C14.413 2.40401 14.768 0.705005 15.207 0.705005C15.645 0.705005 16 2.40401 16 4.50001Z" fill="black"/>
</svg>
