<svg width="29" height="29" viewBox="0 0 29 29" fill="none" xmlns="http://www.w3.org/2000/svg">
<mask id="mask0_406_807" style="mask-type:alpha" maskUnits="userSpaceOnUse" x="0" y="0" width="29" height="29">
<rect width="29" height="29" fill="#D9D9D9"/>
</mask>
<g mask="url(#mask0_406_807)">
<path d="M5.20833 21.5C4.54099 21.5 4 20.959 4 20.2917C4 19.6243 4.54099 19.0833 5.20833 19.0833H24.5417C25.209 19.0833 25.75 19.6243 25.75 20.2917C25.75 20.959 25.209 21.5 24.5417 21.5H5.20833ZM5.20833 15.4583C4.54099 15.4583 4 14.9173 4 14.25C4 13.5827 4.54099 13.0417 5.20833 13.0417H24.5417C25.209 13.0417 25.75 13.5827 25.75 14.25C25.75 14.9173 25.209 15.4583 24.5417 15.4583H5.20833ZM5.20833 9.41667C4.54099 9.41667 4 8.87568 4 8.20833C4 7.54099 4.54099 7 5.20833 7H24.5417C25.209 7 25.75 7.54099 25.75 8.20833C25.75 8.87568 25.209 9.41667 24.5417 9.41667H5.20833Z" fill="#1C1B1F"/>
</g>
</svg>
