<svg width="22" height="22" viewBox="0 0 22 22" fill="none" xmlns="http://www.w3.org/2000/svg">
<path d="M7.81109 21.4507C8.8604 21.7677 9.92063 21.9535 11.0464 21.9535C13.9453 21.9535 16.7255 20.8019 18.7753 18.7521C20.8251 16.7023 21.9767 13.9221 21.9767 11.0233C21.9767 9.58787 21.694 8.16655 21.1447 6.84043C20.5954 5.51431 19.7903 4.30937 18.7753 3.29441C17.7603 2.27944 16.5554 1.47433 15.2293 0.925032C13.9031 0.375736 12.4818 0.0930176 11.0464 0.0930176C9.61106 0.0930176 8.18974 0.375736 6.86362 0.925032C5.53751 1.47433 4.33257 2.27944 3.3176 3.29441C1.26779 5.34422 0.116211 8.12437 0.116211 11.0233C0.116211 15.6686 3.03458 19.6581 7.15528 21.2321C7.05691 20.3795 6.95854 18.9695 7.15528 17.9967L8.41226 12.5972C8.41226 12.5972 8.09528 11.9633 8.09528 10.9577C8.09528 9.4493 9.03528 8.32348 10.1064 8.32348C11.0464 8.32348 11.4837 9.01209 11.4837 9.89744C11.4837 10.8374 10.8606 12.1819 10.5437 13.4716C10.3578 14.5428 11.112 15.4828 12.205 15.4828C14.1506 15.4828 15.659 13.406 15.659 10.4767C15.659 7.85348 13.779 6.06093 11.0792 6.06093C7.99691 6.06093 6.18249 8.35627 6.18249 10.7719C6.18249 11.7119 6.48854 12.6628 6.99133 13.2858C7.0897 13.3514 7.0897 13.4388 7.05691 13.6028L6.73993 14.7942C6.73993 14.98 6.6197 15.0456 6.43389 14.9144C5.03482 14.3023 4.22598 12.313 4.22598 10.7063C4.22598 7.25232 6.67435 4.11534 11.3962 4.11534C15.1562 4.11534 18.0855 6.81511 18.0855 10.4002C18.0855 14.1602 15.7574 17.177 12.4237 17.177C11.3634 17.177 10.325 16.6086 9.95342 15.9419L9.2211 18.5323C8.9697 19.4723 8.28109 20.7293 7.81109 21.4835V21.4507Z" fill="#020202"/>
</svg>
