<svg width="36" height="36" viewBox="0 0 36 36" fill="none" xmlns="http://www.w3.org/2000/svg">
<path d="M18 0C14.4399 0 10.9598 1.05568 7.99974 3.03355C5.03966 5.01141 2.73255 7.82263 1.37018 11.1117C0.00779891 14.4008 -0.348661 18.02 0.345873 21.5116C1.04041 25.0033 2.75474 28.2106 5.27208 30.7279C7.78943 33.2453 10.9967 34.9596 14.4884 35.6541C17.98 36.3487 21.5992 35.9922 24.8883 34.6298C28.1774 33.2674 30.9886 30.9603 32.9665 28.0003C34.9443 25.0402 36 21.5601 36 18C35.9944 13.2278 34.0962 8.65271 30.7217 5.27827C27.3473 1.90383 22.7722 0.00560444 18 0ZM18 33.8823C14.8588 33.8823 11.7881 32.9509 9.17624 31.2057C6.5644 29.4605 4.52872 26.98 3.32663 24.0779C2.12453 21.1758 1.81001 17.9824 2.42283 14.9015C3.03565 11.8206 4.5483 8.99067 6.76949 6.76948C8.99067 4.54829 11.8206 3.03565 14.9015 2.42282C17.9824 1.81 21.1758 2.12452 24.0779 3.32662C26.98 4.52872 29.4605 6.5644 31.2057 9.17624C32.9509 11.7881 33.8824 14.8588 33.8824 18C33.8777 22.2108 32.2029 26.2478 29.2254 29.2254C26.2479 32.2029 22.2108 33.8777 18 33.8823ZM25.8071 17.2518C26.0053 17.4503 26.1167 17.7194 26.1167 18C26.1167 18.2806 26.0053 18.5497 25.8071 18.7482L20.16 24.3953C19.9593 24.5823 19.6938 24.6841 19.4195 24.6793C19.1452 24.6745 18.8835 24.5633 18.6895 24.3693C18.4955 24.1753 18.3844 23.9136 18.3795 23.6393C18.3747 23.365 18.4765 23.0995 18.6635 22.8988L22.5018 19.0588H10.9412C10.6604 19.0588 10.391 18.9473 10.1925 18.7487C9.99391 18.5501 9.88236 18.2808 9.88236 18C9.88236 17.7192 9.99391 17.4499 10.1925 17.2513C10.391 17.0527 10.6604 16.9412 10.9412 16.9412H22.5018L18.6635 13.1012C18.4765 12.9005 18.3747 12.635 18.3795 12.3607C18.3844 12.0864 18.4955 11.8246 18.6895 11.6306C18.8835 11.4367 19.1452 11.3255 19.4195 11.3207C19.6938 11.3159 19.9593 11.4177 20.16 11.6047L25.8071 17.2518Z" fill="#020202"/>
</svg>
