<svg width="26" height="26" viewBox="0 0 26 26" fill="none" xmlns="http://www.w3.org/2000/svg">
<path d="M12.57 0.137024C5.63136 0.137024 0 5.76838 0 12.707C0 19.6457 5.63136 25.277 12.57 25.277C19.5086 25.277 25.14 19.6457 25.14 12.707C25.14 5.76838 19.5086 0.137024 12.57 0.137024ZM18.4025 8.68462C18.2139 10.6707 17.3969 15.4976 16.9821 17.7225C16.8061 18.6652 16.4541 18.9795 16.1273 19.0172C15.3982 19.08 14.8452 18.5395 14.1412 18.0744C13.0351 17.3454 12.4066 16.8928 11.3381 16.1889C10.0937 15.3719 10.8982 14.9193 11.6147 14.1903C11.8032 14.0017 15.0211 11.0729 15.084 10.809C15.0927 10.769 15.0916 10.7275 15.0806 10.688C15.0697 10.6486 15.0492 10.6124 15.0211 10.5827C14.9457 10.5198 14.8452 10.545 14.7572 10.5576C14.644 10.5827 12.8843 11.7517 9.45264 14.0646C8.94984 14.404 8.49732 14.58 8.09508 14.5674C7.64256 14.5548 6.7878 14.316 6.14673 14.1023C5.35482 13.8509 4.73889 13.7126 4.78917 13.2727C4.81431 13.0464 5.12856 12.8202 5.71935 12.5813C9.38979 10.9849 11.8284 9.92905 13.0477 9.42625C16.5421 7.96813 17.2586 7.71673 17.7363 7.71673C17.8368 7.71673 18.0757 7.74187 18.2265 7.86757C18.3522 7.96813 18.3899 8.1064 18.4025 8.20696C18.3899 8.28238 18.415 8.50864 18.4025 8.68462Z" fill="#020202"/>
</svg>
