<svg width="61" height="58" viewBox="0 0 61 58" fill="none" xmlns="http://www.w3.org/2000/svg">
<path d="M60.0578 28.7059C60.0578 54.162 51.3919 41.1632 31.3519 57.4118C15.4981 57.4118 13.2076 49.0166 2.64604 28.7059C-7.91551 8.39512 15.4981 0 31.3519 0C47.2057 0 60.0578 3.24972 60.0578 28.7059Z" fill="url(#paint0_linear_177_168)" fill-opacity="0.26"/>
<path d="M28.7676 3.39141C23.4159 5.81324 17.1546 6.53388 11.3186 5.39976C9.02676 4.95083 8.75505 5.12804 8.2825 7.4081C7.62092 10.6333 7.29014 13.6221 7.19563 17.2135C6.84122 30.693 11.4958 42.5541 19.7419 49.2052C22.2346 51.2136 25.2825 52.8793 28.295 53.8599C29.9844 54.4151 29.9962 54.4151 30.8114 54.2733C32.0164 54.0607 34.3319 53.151 34.6508 52.7494C34.9698 52.3477 35.0171 51.4853 34.7335 51.0836C34.5209 50.7646 33.9656 50.4693 33.6112 50.4693C33.4695 50.4693 32.6661 50.7056 31.8392 51.0009L30.3152 51.5207L29.5237 51.2845C20.6161 48.5318 13.9649 40.6875 11.2832 29.7479C10.5035 26.5228 10.1254 23.6048 10.0309 19.8716C9.93642 16.2921 10.1254 13.5867 10.7279 9.85355C10.9288 8.60129 11.0115 8.29413 11.1651 8.29413C11.2714 8.29413 11.8857 8.37683 12.5355 8.48315C14.2366 8.73124 17.6863 8.82575 19.4465 8.66036C22.9434 8.34139 26.3221 7.51442 29.3346 6.25035L30.2561 5.86049L31.2012 6.25035C33.7057 7.26633 36.5765 8.05786 39.4118 8.49496C41.0185 8.74305 45.9684 8.7785 47.5042 8.55403C48.024 8.48315 48.6974 8.38864 48.9928 8.34139L49.5362 8.2705L49.737 9.31012C50.5404 13.7639 50.7294 19.5645 50.2214 24.0419C50.0324 25.7194 50.0324 25.7903 50.245 26.1684C50.3632 26.3692 50.6703 26.6409 50.9184 26.7709C51.2965 26.9599 51.4382 26.9717 51.8044 26.8536C52.5487 26.6409 52.7614 26.2983 52.9386 25.0461C53.6592 20.1079 53.4347 13.5985 52.3479 7.85702C51.9935 6.02589 51.769 5.52971 51.1665 5.2698C50.8121 5.12804 50.6349 5.12804 49.6071 5.32887C47.3152 5.78961 46.3465 5.87231 43.6648 5.87231C41.7864 5.86049 40.605 5.80142 39.6363 5.65966C37.0372 5.2698 34.072 4.41921 31.6265 3.34416C31.0358 3.07244 30.3979 2.85979 30.2207 2.87161C30.0435 2.87161 29.3937 3.10788 28.7676 3.39141Z" fill="url(#paint1_linear_177_168)"/>
<path d="M43.3696 27.9757C42.011 28.1529 41.1132 28.3182 40.298 28.5782C36.494 29.7832 33.8241 32.6067 32.7136 36.6115C32.4183 37.6629 32.3828 37.9583 32.3828 39.8367C32.3828 42.3176 32.5128 42.9437 33.4461 44.8575C35.1118 48.2835 38.2306 50.6345 42.0937 51.3669C43.4169 51.615 45.567 51.5323 46.8901 51.1897C47.9652 50.9062 49.56 50.1856 50.6115 49.5004L51.3676 49.016L55.1716 52.82C58.6803 56.3169 59.0229 56.6359 59.4482 56.6831C60.3342 56.7895 61.1257 55.9625 60.984 55.0883C60.9249 54.7339 60.3815 54.1314 57.1209 50.8707L53.3168 47.0667L53.8721 46.2397C56.5302 42.2467 56.4711 37.2731 53.7185 33.1028C53.1396 32.2168 51.6747 30.7046 50.8005 30.0785C49.7727 29.346 48.2605 28.6608 46.9728 28.3301C45.886 28.0583 44.1021 27.8811 43.3696 27.9757ZM45.9923 31.0472C49.0757 31.697 51.5448 33.8825 52.4662 36.8005C53.6358 40.4983 52.478 44.6213 49.6546 46.7596C47.2918 48.5434 44.3147 49.0987 41.4794 48.2835C37.6872 47.1849 35.3953 44.255 35.1945 40.2502C34.9818 35.8673 37.321 32.4413 41.3849 31.2126C42.968 30.7283 44.2675 30.6928 45.9923 31.0472Z" fill="url(#paint2_linear_177_168)"/>
<defs>
<linearGradient id="paint0_linear_177_168" x1="2.24361" y1="34.1129" x2="143.981" y2="3.96173" gradientUnits="userSpaceOnUse">
<stop stop-color="#3B3BF9"/>
<stop offset="0.51" stop-color="#10E0F9"/>
<stop offset="1" stop-color="#92FFFF"/>
</linearGradient>
<linearGradient id="paint1_linear_177_168" x1="8.90187" y1="23.7633" x2="119.148" y2="43.873" gradientUnits="userSpaceOnUse">
<stop stop-color="#3B3BF9"/>
<stop offset="0.51" stop-color="#10E0F9"/>
<stop offset="1" stop-color="#92FFFF"/>
</linearGradient>
<linearGradient id="paint2_linear_177_168" x1="33.4519" y1="39.6142" x2="101.266" y2="53.3447" gradientUnits="userSpaceOnUse">
<stop stop-color="#3B3BF9"/>
<stop offset="0.51" stop-color="#10E0F9"/>
<stop offset="1" stop-color="#92FFFF"/>
</linearGradient>
</defs>
</svg>
