<svg width="27" height="26" viewBox="0 0 27 26" fill="none" xmlns="http://www.w3.org/2000/svg">
<path d="M13.4995 0.20929C6.55803 0.20929 0.929688 5.83763 0.929688 12.7791C0.929688 19.7205 6.55803 25.3488 13.4995 25.3488C20.4409 25.3488 26.0692 19.7205 26.0692 12.7791C26.0692 5.83763 20.4409 0.20929 13.4995 0.20929ZM19.5402 9.68431C19.5487 9.81618 19.5487 9.95366 19.5487 10.0883C19.5487 14.2072 16.4118 18.9517 10.6797 18.9517C8.91205 18.9517 7.27349 18.4383 5.89306 17.5544C6.14558 17.5825 6.38687 17.5937 6.645 17.5937C8.10399 17.5937 9.44514 17.0999 10.5141 16.2638C9.14493 16.2357 7.99457 15.3379 7.60176 14.1034C8.08155 14.1735 8.51363 14.1735 9.00745 14.0473C8.30243 13.904 7.66875 13.5211 7.21406 12.9636C6.75936 12.4061 6.51169 11.7084 6.51313 10.989V10.9497C6.92558 11.1826 7.41097 11.3257 7.91881 11.3453C7.4919 11.0608 7.14178 10.6753 6.89952 10.2231C6.65725 9.77087 6.53031 9.26584 6.52997 8.7528C6.52997 8.17201 6.68148 7.64173 6.95364 7.18158C7.73617 8.1449 8.71265 8.93277 9.81961 9.49399C10.9266 10.0552 12.1392 10.3772 13.3788 10.4391C12.9383 8.32072 14.5207 6.6064 16.423 6.6064C17.3209 6.6064 18.1289 6.98237 18.6985 7.58842C19.4028 7.45655 20.0761 7.1928 20.6766 6.83928C20.4437 7.56036 19.9555 8.16921 19.3074 8.55359C19.9358 8.48626 20.5419 8.3123 21.103 8.0682C20.6794 8.69108 20.1491 9.24381 19.5402 9.68431Z" fill="#020202"/>
</svg>
